<svg xmlns="http://www.w3.org/2000/svg" xmlns:xlink="http://www.w3.org/1999/xlink" width="56" height="58" viewBox="0 0 56 58">
    <defs>
        <rect id="b" width="56" height="56" rx="7.368"/>
        <filter id="a" width="101.8%" height="103.6%" x="-.9%" y="-.9%" filterUnits="objectBoundingBox">
            <feOffset dy="1" in="SourceAlpha" result="shadowOffsetOuter1"/>
            <feColorMatrix in="shadowOffsetOuter1" values="0 0 0 0 0.442362883 0 0 0 0 0.442362883 0 0 0 0 0.442362883 0 0 0 0.28272192 0"/>
        </filter>
        <path id="c" d="M37.844 33.425H20.125V20.956a.656.656 0 0 0-.656-.656h-1.313a.656.656 0 0 0-.656.656v13.781c0 .725.588 1.313 1.313 1.313h19.03a.656.656 0 0 0 .657-.656V34.08a.656.656 0 0 0-.656-.656zM36.53 21.613H31.69c-.877 0-1.316 1.06-.696 1.68l1.329 1.329-3.01 3.01-3.009-3.01a1.312 1.312 0 0 0-1.856 0L21.63 27.44a.656.656 0 0 0 0 .928l.928.928a.656.656 0 0 0 .928 0l1.889-1.89 3.01 3.01a1.312 1.312 0 0 0 1.855 0l3.938-3.938 1.329 1.329c.62.62 1.68.18 1.68-.696v-4.842a.655.655 0 0 0-.656-.656z"/>
    </defs>
    <g fill="none" fill-rule="nonzero" transform="translate(0 .885)">
        <use fill="#000" filter="url(#a)" xlink:href="#b"/>
        <use fill="#283032" xlink:href="#b"/>
        <use fill="#FFF" xlink:href="#c"/>
    </g>
</svg>
