<svg xmlns="http://www.w3.org/2000/svg" xmlns:xlink="http://www.w3.org/1999/xlink" width="70" height="73" viewBox="0 0 70 73">
    <defs>
        <filter id="a" width="118.6%" height="118.6%" x="-9.3%" y="-9.3%" filterUnits="objectBoundingBox">
            <feOffset dy="3" in="SourceAlpha" result="shadowOffsetOuter1"/>
            <feColorMatrix in="shadowOffsetOuter1" result="shadowMatrixOuter1" values="0 0 0 0 0 0 0 0 0 0 0 0 0 0 0 0 0 0 0.127830616 0"/>
            <feMerge>
                <feMergeNode in="shadowMatrixOuter1"/>
                <feMergeNode in="SourceGraphic"/>
            </feMerge>
        </filter>
        <path id="b" d="M20.19 0h29.62c7.02 0 9.566.731 12.133 2.104a14.311 14.311 0 0 1 5.953 5.953C69.27 10.624 70 13.17 70 20.191v29.618c0 7.021-.731 9.567-2.104 12.134a14.311 14.311 0 0 1-5.953 5.953C59.376 69.27 56.83 70 49.809 70H20.191c-7.021 0-9.567-.731-12.134-2.104a14.311 14.311 0 0 1-5.953-5.953C.73 59.376 0 56.83 0 49.809V20.191c0-7.021.731-9.567 2.104-12.134a14.311 14.311 0 0 1 5.953-5.953C10.624.73 13.17 0 20.191 0z"/>
    </defs>
    <g fill="none" fill-rule="evenodd" filter="url(#a)">
        <mask id="c" fill="#fff">
            <use xlink:href="#b"/>
        </mask>
        <use fill="#FA454D" xlink:href="#b"/>
        <g mask="url(#c)">
            <path fill="#FA454D" fill-rule="nonzero" d="M0 0h70v70H0z"/>
            <path fill="#FFF" d="M40.898 30.785c-.807.623-1.988.934-3.543.934h-6.251l1.188-6.153h6.163c2.436 0 3.654.837 3.654 2.507 0 1.185-.404 2.09-1.21 2.712M39.835 43.54c-.878.64-2.092.961-3.643.961h-7.55l1.229-6.494h7.681c1.112 0 1.99.221 2.634.663.643.442.965 1.12.965 2.035 0 1.25-.439 2.195-1.316 2.835m5.87-9.011c1.728-.763 3.076-1.824 4.044-3.183.967-1.358 1.451-2.97 1.451-4.832 0-2.412-.917-4.266-2.748-5.565-1.832-1.298-4.478-1.946-7.936-1.946H24.954l-6.155 32.06h16.926c4.192 0 7.591-.862 10.2-2.588 2.609-1.724 3.913-4.251 3.913-7.58 0-1.465-.359-2.74-1.077-3.824-.719-1.083-1.737-1.93-3.056-2.542"/>
        </g>
    </g>
</svg>
