<svg xmlns="http://www.w3.org/2000/svg" xmlns:xlink="http://www.w3.org/1999/xlink" width="56" height="58" viewBox="0 0 56 58">
    <defs>
        <rect id="b" width="56" height="56" rx="7.368"/>
        <filter id="a" width="101.8%" height="103.6%" x="-.9%" y="-.9%" filterUnits="objectBoundingBox">
            <feOffset dy="1" in="SourceAlpha" result="shadowOffsetOuter1"/>
            <feColorMatrix in="shadowOffsetOuter1" values="0 0 0 0 0.442362883 0 0 0 0 0.442362883 0 0 0 0 0.442362883 0 0 0 0.28272192 0"/>
        </filter>
        <path id="c" d="M20.353 9.194C19.476 3.792 17.407 0 15 0c-2.407 0-4.476 3.792-5.353 9.194h10.706zM9.193 15c0 1.343.073 2.631.2 3.871h11.208c.127-1.24.2-2.528.2-3.871a37.91 37.91 0 0 0-.2-3.871H9.393a37.91 37.91 0 0 0-.2 3.871zm19.64-5.806A15.032 15.032 0 0 0 19.276.629c1.476 2.044 2.492 5.123 3.024 8.565h6.533zM10.718.629a15.022 15.022 0 0 0-9.55 8.565H7.7c.526-3.442 1.542-6.52 3.018-8.565zm18.762 10.5h-6.938c.127 1.27.2 2.57.2 3.871 0 1.3-.073 2.6-.2 3.871h6.932c.332-1.24.52-2.528.52-3.871a15.13 15.13 0 0 0-.514-3.871zM7.258 15c0-1.3.073-2.6.2-3.871H.52A15.133 15.133 0 0 0 0 15c0 1.343.194 2.631.52 3.871h6.932A40.956 40.956 0 0 1 7.258 15zm2.39 5.806C10.523 26.208 12.592 30 15 30c2.407 0 4.476-3.792 5.353-9.194H9.647zm9.634 8.565a15.046 15.046 0 0 0 9.557-8.565h-6.533c-.532 3.442-1.548 6.52-3.024 8.565zM1.167 20.806a15.032 15.032 0 0 0 9.557 8.565c-1.476-2.044-2.492-5.123-3.024-8.565H1.167z"/>
    </defs>
    <g fill="none" fill-rule="evenodd">
        <g fill-rule="nonzero" transform="translate(0 .885)">
            <use fill="#000" filter="url(#a)" xlink:href="#b"/>
            <use fill="#FFF" xlink:href="#b"/>
        </g>
        <use fill="#90A3B6" fill-rule="nonzero" transform="translate(13 13.885)" xlink:href="#c"/>
    </g>
</svg>
