<svg xmlns="http://www.w3.org/2000/svg" xmlns:xlink="http://www.w3.org/1999/xlink" width="30" height="29" viewBox="0 0 30 29">
    <defs>
        <path id="a" d="M.004.024H30v28.687H.004z"/>
    </defs>
    <g fill="none" fill-rule="evenodd">
        <mask id="b" fill="#fff">
            <use xlink:href="#a"/>
        </mask>
        <path fill="#0A0B09" stroke="#FFF" d="M14.344 28.71h-.009a14.25 14.25 0 0 1-10.14-4.206A14.25 14.25 0 0 1 0 14.359 14.25 14.25 0 0 1 4.207 4.22 14.25 14.25 0 0 1 14.352.024c2.021.001 3.983.419 5.83 1.242a1.212 1.212 0 0 1-.987 2.214 11.844 11.844 0 0 0-4.845-1.032h-.007A11.842 11.842 0 0 0 5.92 5.934a11.842 11.842 0 0 0-3.496 8.427c-.004 6.572 5.34 11.922 11.913 11.926h.007c3.18 0 6.172-1.238 8.423-3.486a11.842 11.842 0 0 0 3.496-8.427v-1.22a1.212 1.212 0 0 1 2.424 0v1.221a14.25 14.25 0 0 1-4.207 10.14 14.25 14.25 0 0 1-10.136 4.196" mask="url(#b)"/>
        <path fill="#0A0B09" stroke="#FFF" d="M14.343 18.213c-.31 0-.62-.118-.856-.355l-3.94-3.94a1.212 1.212 0 1 1 1.714-1.713l3.082 3.083L27.931 1.7a1.212 1.212 0 0 1 1.714 1.714L15.2 17.858a1.208 1.208 0 0 1-.857.355" mask="url(#b)"/>
    </g>
</svg>
