<svg xmlns="http://www.w3.org/2000/svg" xmlns:xlink="http://www.w3.org/1999/xlink" width="203" height="42" viewBox="0 0 203 42">
    <defs>
        <path id="a" d="M0 .187h29.989v29.447H0z"/>
        <path id="c" d="M.233.074H30.22v22.8H.233z"/>
        <path id="e" d="M.145.338H8.99v6.604H.145z"/>
    </defs>
    <g fill="none" fill-rule="evenodd" opacity=".6">
        <g transform="translate(0 3.638)">
            <mask id="b" fill="#fff">
                <use xlink:href="#a"/>
            </mask>
            <path fill="#7C7C7C" d="M20.447 11.02c-.746.574-1.838.861-3.275.861h-5.779l1.099-5.678h5.697c2.25 0 3.377.771 3.377 2.313 0 1.094-.374 1.93-1.12 2.503m-.955 11.715c-.814.59-1.94.884-3.378.884H9.115l1.139-5.973h7.12c1.031 0 1.845.203 2.442.61.596.406.895 1.03.895 1.872 0 1.15-.407 2.019-1.22 2.607m5.411-8.286c1.6-.701 2.848-1.676 3.744-2.924.895-1.247 1.343-2.727 1.343-4.438 0-2.215-.849-3.918-2.543-5.11C25.75.782 23.3.186 20.1.186H5.697L0 29.634h15.665c3.88 0 7.026-.792 9.441-2.377 2.414-1.584 3.621-3.905 3.621-6.962 0-1.346-.332-2.516-.997-3.513-.665-.995-1.607-1.773-2.828-2.334" mask="url(#b)"/>
        </g>
        <path fill="#7C7C7C" d="M48.747 20.19c-.353 1.71-.963 2.994-1.831 3.849-.869.855-1.967 1.283-3.296 1.283-1.98 0-2.97-1.024-2.97-3.072 0-.252.053-.742.162-1.472l1.994-10.306h-7.73l-2.117 11.063c-.19.954-.285 1.894-.285 2.819 0 2.496.712 4.41 2.137 5.742 1.424 1.332 3.342 1.998 5.757 1.998 1.14 0 2.244-.19 3.316-.568a10.36 10.36 0 0 0 2.99-1.661l-.121.589c-.326 1.766-.963 3.077-1.913 3.933-.95.855-2.374 1.283-4.272 1.283a12.65 12.65 0 0 1-4.028-.652c-1.302-.436-2.415-1.031-3.337-1.788l-3.418 5.595c2.631 1.991 6.158 2.986 10.58 2.986 3.96 0 7.14-1.002 9.541-3.007 2.4-2.006 4.022-5.21 4.863-9.612l3.58-18.72h-7.73l-1.872 9.717zM71.777 5.382h-7.731l-3.744 19.435c-.136.617-.203 1.332-.203 2.145 0 2.103.664 3.744 1.993 4.922 1.33 1.178 3.134 1.766 5.412 1.766 2.305 0 4.218-.448 5.738-1.345l-.977-5.511c-.814.449-1.587.673-2.32.673-.65 0-1.145-.161-1.485-.484-.339-.322-.508-.792-.508-1.409 0-.14.026-.407.081-.8l1.465-7.487h4.964l1.14-5.974h-4.965l1.14-5.93zM85.184 17.098c.882-.884 2.027-1.326 3.438-1.326 1.112 0 2.028.267 2.747.8.718.533 1.16 1.29 1.323 2.271l-9.278 1.767c.298-1.458.888-2.63 1.77-3.512m5.9 9.97a8.267 8.267 0 0 1-2.788.483c-1.356 0-2.434-.217-3.234-.652-.8-.435-1.35-1.115-1.648-2.04l16.357-3.113c.054-.673.082-1.15.082-1.43 0-2.188-.462-4.053-1.384-5.595a8.684 8.684 0 0 0-3.845-3.47c-1.642-.772-3.506-1.157-5.595-1.157-2.632 0-4.957.567-6.978 1.703a12.113 12.113 0 0 0-4.72 4.712c-1.126 2.005-1.689 4.255-1.689 6.752 0 2.103.482 3.932 1.445 5.489.962 1.556 2.333 2.762 4.11 3.617 1.775.856 3.83 1.283 6.164 1.283 3.689 0 6.822-.98 9.4-2.944L93.546 25.7a8.34 8.34 0 0 1-2.462 1.367M109.435 16.256c.583-.322 1.471-.484 2.665-.484 2.523 0 4.706.576 6.551 1.726l2.727-5.596c-1.086-.56-2.36-1.002-3.826-1.324a21.158 21.158 0 0 0-4.557-.484c-3.472 0-6.3.722-8.484 2.166-2.184 1.445-3.275 3.485-3.275 6.12 0 1.515.393 2.693 1.18 3.534a6.59 6.59 0 0 0 2.746 1.788c1.044.351 2.38.68 4.009.988 1.22.197 2.108.4 2.664.61.557.21.835.54.835.989 0 1.094-1.18 1.641-3.54 1.641-1.33 0-2.686-.19-4.069-.568-1.384-.38-2.578-.89-3.58-1.536l-2.809 5.595c.977.646 2.34 1.178 4.09 1.599 1.749.42 3.573.63 5.473.63 3.418 0 6.225-.715 8.422-2.145 2.198-1.43 3.296-3.463 3.296-6.1 0-1.457-.386-2.607-1.16-3.449a6.62 6.62 0 0 0-2.726-1.809c-1.045-.364-2.353-.686-3.926-.967-1.275-.253-2.19-.484-2.746-.694-.557-.21-.835-.54-.835-.988 0-.505.291-.919.875-1.242M154.255 10.094c-1.627 0-3.127.315-4.496.946-1.37.631-2.571 1.55-3.602 2.755-.624-1.205-1.52-2.124-2.685-2.755-1.167-.631-2.482-.946-3.947-.946-2.577 0-4.774.897-6.592 2.692l.448-2.314h-7.324l-4.395 22.8h7.731l2.197-11.4c.652-3.337 2.224-5.006 4.72-5.006.896 0 1.58.26 2.055.778.475.52.713 1.283.713 2.293 0 .562-.056 1.08-.163 1.556l-2.32 11.78h7.731l2.238-11.485c.651-3.282 2.211-4.922 4.68-4.922.895 0 1.58.253 2.055.757.474.505.711 1.262.711 2.272 0 .533-.054 1.066-.163 1.598l-2.277 11.78h7.73l2.4-12.621c.19-.953.286-1.893.286-2.818 0-2.467-.706-4.376-2.116-5.721-1.41-1.346-3.282-2.02-5.615-2.02M167.56 10.472l-4.394 22.8h7.69l4.395-22.8z"/>
        <g transform="translate(172.698 10.398)">
            <mask id="d" fill="#fff">
                <use xlink:href="#c"/>
            </mask>
            <path fill="#7C7C7C" d="M30.222.074h-8.505l-5.249 5.805-2.93-5.805H5.441l5.82 11.105L.232 22.874H8.98l5.33-5.974 3.012 5.974h8.219L19.56 11.558z" mask="url(#d)"/>
        </g>
        <g transform="translate(168.083 .06)">
            <mask id="f" fill="#fff">
                <use xlink:href="#e"/>
            </mask>
            <path fill="#7C7C7C" d="M8.99.338H1.3L.145 6.942h7.69z" mask="url(#f)"/>
        </g>
    </g>
</svg>
