<svg xmlns="http://www.w3.org/2000/svg" xmlns:xlink="http://www.w3.org/1999/xlink" width="124" height="26" viewBox="0 0 124 26">
    <defs>
        <path id="a" d="M0 .115h18.31v17.992H0z"/>
        <path id="c" d="M.142.045h18.31v13.931H.143z"/>
        <path id="e" d="M.089.207h5.4v4.035H.09z"/>
    </defs>
    <g fill="none" fill-rule="evenodd">
        <g transform="translate(0 2.108)">
            <mask id="b" fill="#fff">
                <use xlink:href="#a"/>
            </mask>
            <path fill="#FA454D" d="M12.484 6.733c-.455.351-1.122.527-2 .527H6.958l.67-3.47h3.479c1.374 0 2.062.471 2.062 1.414 0 .668-.228 1.178-.684 1.529m-.583 7.158c-.497.36-1.185.54-2.062.54H5.565l.696-3.65h4.348c.63 0 1.126.125 1.49.373.365.248.547.63.547 1.144 0 .702-.249 1.233-.745 1.593m3.304-5.063c.977-.429 1.739-1.024 2.286-1.787.546-.762.82-1.666.82-2.712 0-1.353-.518-2.393-1.553-3.122C15.723.478 14.228.115 12.273.115H3.478L0 18.107h9.565c2.369 0 4.29-.484 5.764-1.453 1.474-.967 2.211-2.386 2.211-4.253 0-.823-.202-1.538-.608-2.147-.406-.608-.982-1.083-1.727-1.426" mask="url(#b)"/>
        </g>
        <path fill="#FA454D" d="M29.764 12.22c-.216 1.046-.588 1.83-1.118 2.352-.53.523-1.201.784-2.013.784-1.209 0-1.813-.625-1.813-1.876 0-.154.033-.454.1-.9l1.217-6.297h-4.72l-1.293 6.76a8.803 8.803 0 0 0-.174 1.722c0 1.525.435 2.695 1.305 3.509.87.814 2.04 1.22 3.515 1.22.696 0 1.37-.115 2.025-.346a6.324 6.324 0 0 0 1.826-1.016l-.074.36c-.2 1.08-.588 1.88-1.168 2.403-.58.523-1.45.784-2.609.784a7.719 7.719 0 0 1-2.46-.398c-.794-.266-1.474-.63-2.037-1.093l-2.087 3.42c1.607 1.216 3.76 1.824 6.46 1.824 2.418 0 4.36-.613 5.826-1.838 1.466-1.225 2.455-3.183 2.969-5.873l2.186-11.438h-4.72l-1.143 5.938zM43.826 3.173h-4.72l-2.287 11.875a6.151 6.151 0 0 0-.124 1.31c0 1.286.406 2.288 1.218 3.008.811.72 1.913 1.08 3.304 1.08 1.407 0 2.576-.275 3.503-.823l-.596-3.367c-.497.274-.969.411-1.416.411-.398 0-.7-.098-.907-.296-.207-.196-.31-.483-.31-.86 0-.086.016-.249.05-.489l.894-4.575h3.03l.696-3.65h-3.03l.695-3.624zM52.012 10.331c.538-.54 1.238-.81 2.1-.81.678 0 1.237.164 1.677.49.438.325.708.787.807 1.387l-5.665 1.08c.182-.891.543-1.607 1.081-2.147m3.602 6.092a5.045 5.045 0 0 1-1.702.296c-.828 0-1.486-.133-1.975-.399-.488-.265-.824-.681-1.006-1.246l9.988-1.903a12.7 12.7 0 0 0 .05-.873c0-1.337-.282-2.476-.845-3.419a5.304 5.304 0 0 0-2.348-2.12c-1.002-.471-2.141-.707-3.416-.707-1.607 0-3.027.347-4.261 1.04a7.398 7.398 0 0 0-2.882 2.88c-.688 1.225-1.03 2.6-1.03 4.125 0 1.285.293 2.403.881 3.354.588.95 1.424 1.688 2.51 2.21 1.084.523 2.338.784 3.763.784 2.252 0 4.166-.6 5.74-1.799l-1.963-3.059a5.09 5.09 0 0 1-1.504.836M66.82 9.817c.355-.197.898-.295 1.627-.295 1.54 0 2.873.351 4 1.054l1.664-3.419c-.662-.342-1.44-.612-2.335-.81a12.91 12.91 0 0 0-2.783-.295c-2.12 0-3.847.441-5.18 1.324-1.333.882-2 2.129-2 3.74 0 .925.24 1.644.72 2.158s1.04.878 1.678 1.093c.637.214 1.453.415 2.447.604.745.12 1.287.244 1.627.373.34.128.51.33.51.603 0 .669-.72 1.003-2.162 1.003-.812 0-1.64-.116-2.484-.347-.845-.232-1.574-.544-2.187-.938l-1.714 3.418c.596.395 1.428.72 2.496.977 1.069.257 2.183.385 3.343.385 2.086 0 3.8-.436 5.142-1.31 1.342-.874 2.013-2.117 2.013-3.727 0-.891-.236-1.594-.709-2.108a4.042 4.042 0 0 0-1.664-1.105c-.638-.223-1.437-.42-2.398-.591-.778-.155-1.337-.296-1.676-.424-.34-.129-.51-.33-.51-.604 0-.309.178-.561.534-.759M94.186 6.052c-.994 0-1.91.193-2.746.578a6.396 6.396 0 0 0-2.199 1.684 3.913 3.913 0 0 0-1.64-1.684c-.712-.385-1.515-.578-2.41-.578-1.573 0-2.914.548-4.024 1.645l.273-1.414h-4.472l-2.683 13.931h4.72l1.342-6.965c.398-2.04 1.358-3.059 2.882-3.059.547 0 .965.159 1.254.475.29.318.436.784.436 1.401 0 .343-.034.66-.1.951l-1.416 7.197h4.72l1.367-7.017c.397-2.005 1.35-3.007 2.857-3.007.547 0 .965.154 1.255.463.29.308.434.77.434 1.388 0 .325-.033.651-.1.976l-1.39 7.197h4.72l1.466-7.71a8.802 8.802 0 0 0 .174-1.723c0-1.507-.43-2.673-1.292-3.495-.861-.823-2.004-1.234-3.428-1.234M102.31 6.283l-2.683 13.931h4.695l2.683-13.931z"/>
        <g transform="translate(105.447 6.238)">
            <mask id="d" fill="#fff">
                <use xlink:href="#c"/>
            </mask>
            <path fill="#FF4848" d="M18.453.045H13.26l-3.205 3.547L8.266.045H3.322L6.875 6.83.142 13.976h5.342l3.255-3.65 1.838 3.65h5.018l-3.652-6.914z" mask="url(#d)"/>
        </g>
        <g transform="translate(102.629 -.079)">
            <mask id="f" fill="#fff">
                <use xlink:href="#e"/>
            </mask>
            <path fill="#FA454D" d="M5.49.206H.793L.089 4.242h4.695z" mask="url(#f)"/>
        </g>
    </g>
</svg>
