<svg xmlns="http://www.w3.org/2000/svg" xmlns:xlink="http://www.w3.org/1999/xlink" width="94" height="20" viewBox="0 0 94 20">
    <defs>
        <path id="a" d="M0 .087h13.897v13.646H0z"/>
        <path id="c" d="M.108.034h13.897V10.6H.108z"/>
        <path id="e" d="M.067.157h4.1v3.06h-4.1z"/>
    </defs>
    <g fill="none" fill-rule="evenodd">
        <g transform="translate(0 1.686)">
            <mask id="b" fill="#fff">
                <use xlink:href="#a"/>
            </mask>
            <path fill="#7C7C7C" d="M9.475 5.106c-.345.267-.851.4-1.517.4H5.28l.509-2.632h2.64c1.043 0 1.565.358 1.565 1.073 0 .507-.173.894-.519 1.16m-.443 5.428c-.377.273-.899.41-1.565.41H4.224l.528-2.768h3.3c.477 0 .855.094 1.131.283.276.188.415.477.415.867 0 .533-.189.936-.566 1.208m2.508-3.84c.742-.324 1.32-.776 1.735-1.355.415-.578.622-1.263.622-2.056 0-1.027-.393-1.816-1.178-2.369-.786-.552-1.92-.828-3.404-.828H2.64L0 13.733h7.26c1.797 0 3.255-.367 4.375-1.102 1.118-.734 1.678-1.81 1.678-3.226 0-.624-.154-1.166-.462-1.628-.309-.461-.745-.822-1.31-1.082" mask="url(#b)"/>
        </g>
        <path fill="#7C7C7C" d="M22.59 9.356c-.164.793-.446 1.388-.848 1.784-.403.396-.912.594-1.528.594-.918 0-1.377-.474-1.377-1.423 0-.117.025-.344.076-.682l.924-4.776h-3.583l-.98 5.127a6.672 6.672 0 0 0-.132 1.306c0 1.157.33 2.044.99 2.661.66.617 1.549.926 2.668.926.528 0 1.04-.088 1.536-.263a4.8 4.8 0 0 0 1.386-.77l-.056.273c-.15.818-.446 1.426-.886 1.822-.44.397-1.1.595-1.98.595a5.862 5.862 0 0 1-1.867-.302 4.813 4.813 0 0 1-1.546-.829l-1.584 2.593c1.22.923 2.853 1.384 4.903 1.384 1.835 0 3.309-.465 4.421-1.394 1.113-.93 1.864-2.414 2.254-4.454l1.659-8.675h-3.583l-.867 4.503zM33.262 2.494H29.68L27.945 11.5a4.662 4.662 0 0 0-.094.995c0 .974.308 1.735.924 2.28.615.546 1.452.819 2.507.819 1.069 0 1.955-.208 2.66-.623l-.453-2.554c-.377.208-.736.312-1.075.312-.302 0-.531-.075-.688-.225-.158-.149-.236-.367-.236-.653 0-.065.012-.188.038-.37l.679-3.47h2.3l.528-2.768h-2.3l.527-2.749zM39.476 7.923c.408-.409.939-.614 1.593-.614.515 0 .94.124 1.273.37.333.248.537.598.613 1.053l-4.3.819c.139-.676.412-1.218.82-1.628m2.735 4.62c-.422.15-.852.225-1.292.225-.629 0-1.128-.101-1.5-.302-.37-.202-.624-.517-.763-.946l7.58-1.443c.025-.312.038-.532.038-.662 0-1.014-.214-1.878-.641-2.593a4.024 4.024 0 0 0-1.782-1.608c-.76-.358-1.625-.536-2.593-.536-1.22 0-2.297.263-3.233.789a5.613 5.613 0 0 0-2.188 2.183c-.522.93-.782 1.972-.782 3.13 0 .974.223 1.822.67 2.543.445.721 1.08 1.28 1.904 1.676.823.397 1.775.595 2.856.595 1.71 0 3.162-.455 4.356-1.364l-1.49-2.32c-.339.273-.72.484-1.14.633M50.714 7.533c.27-.149.682-.224 1.235-.224 1.169 0 2.18.267 3.036.8l1.263-2.593a7.256 7.256 0 0 0-1.773-.614 9.805 9.805 0 0 0-2.111-.224c-1.61 0-2.92.334-3.932 1.003-1.012.67-1.518 1.615-1.518 2.837 0 .702.182 1.247.547 1.637.364.39.789.666 1.273.829.483.163 1.103.315 1.857.458.566.09.977.185 1.235.283.258.097.387.25.387.458 0 .507-.547.76-1.64.76a7.133 7.133 0 0 1-1.886-.263c-.642-.176-1.195-.413-1.66-.712l-1.3 2.593c.452.3 1.083.546 1.894.74.81.196 1.656.293 2.537.293 1.584 0 2.884-.331 3.903-.994 1.018-.663 1.527-1.605 1.527-2.827 0-.675-.179-1.208-.537-1.598-.359-.39-.78-.67-1.264-.838-.484-.17-1.09-.319-1.82-.449-.59-.117-1.014-.224-1.272-.321-.258-.098-.387-.25-.387-.458 0-.234.135-.426.406-.576M71.484 4.678c-.754 0-1.449.146-2.084.438a4.854 4.854 0 0 0-1.669 1.277 2.969 2.969 0 0 0-1.244-1.277c-.54-.292-1.15-.438-1.83-.438-1.193 0-2.212.415-3.054 1.247l.207-1.072h-3.393L56.38 15.419h3.583l1.018-5.283c.302-1.547 1.03-2.32 2.187-2.32.415 0 .732.12.952.36.22.241.33.595.33 1.063 0 .26-.025.5-.075.721L63.3 15.42h3.583l1.037-5.322c.302-1.52 1.025-2.281 2.169-2.281.414 0 .732.117.952.35.22.235.33.586.33 1.054 0 .247-.025.494-.076.74L70.24 15.42h3.582l1.112-5.849c.089-.441.133-.877.133-1.305 0-1.144-.327-2.028-.98-2.652-.655-.624-1.522-.935-2.603-.935M77.65 4.853l-2.036 10.566h3.563l2.037-10.566z"/>
        <g transform="translate(80.031 4.819)">
            <mask id="d" fill="#fff">
                <use xlink:href="#c"/>
            </mask>
            <path fill="#7C7C7C" d="M14.005.034h-3.94l-2.433 2.69L6.274.034H2.522l2.696 5.147L.108 10.6h4.054l2.47-2.768L8.028 10.6h3.808L9.065 5.356z" mask="url(#d)"/>
        </g>
        <g transform="translate(77.892 .028)">
            <mask id="f" fill="#fff">
                <use xlink:href="#e"/>
            </mask>
            <path fill="#7C7C7C" d="M4.166.157H.603l-.536 3.06h3.564z" mask="url(#f)"/>
        </g>
    </g>
</svg>
